<svg width="32" height="32" viewBox="0 0 32 32" fill="none" xmlns="http://www.w3.org/2000/svg">
  <!-- Water droplet shape like the example -->
  <path d="M16 2C16 2 6 12 6 20C6 26.6274 10.4726 32 16 32C21.5274 32 26 26.6274 26 20C26 12 16 2 16 2Z" fill="#0099FF" stroke="#0099FF" stroke-width="0.2"/>
  
  <!-- Three wifi-like strips (white, upside-down) -->
  <!-- Inner dot -->
  <circle cx="16" cy="18" r="1.5" fill="white"/>
  
  <!-- First arc (upside down) - smallest -->
  <path d="M13.5 18C13.5 19.5 14.5 20.5 16 20.5C17.5 20.5 18.5 19.5 18.5 18" stroke="white" stroke-width="1.5" stroke-linecap="round"/>
  
  <!-- Second arc (upside down) - medium -->
  <path d="M11 18C11 21 13 23 16 23C19 23 21 21 21 18" stroke="white" stroke-width="1.5" stroke-linecap="round"/>
  
  <!-- Third arc (upside down) - largest -->
  <path d="M8.5 18C8.5 23 11.5 26 16 26C20.5 26 23.5 23 23.5 18" stroke="white" stroke-width="1.5" stroke-linecap="round"/>
</svg>
