<svg width="30" height="31" viewBox="0 0 30 31" fill="none" xmlns="http://www.w3.org/2000/svg">
<path d="M8.75 20.875C11.5 20.875 13.75 18.5875 13.75 15.8125C13.75 14.3625 13.0375 12.9875 11.6125 11.825C10.1875 10.6625 9.1125 8.9375 8.75 7.125C8.3875 8.9375 7.325 10.675 5.8875 11.825C4.45 12.975 3.75 14.375 3.75 15.8125C3.75 18.5875 6 20.875 8.75 20.875Z" stroke="white" stroke-width="2" stroke-linecap="round" stroke-linejoin="round"/>
<path d="M15.7008 8.75002C16.5605 7.37643 17.1699 5.86133 17.5008 4.27502C18.1258 7.40002 20.0008 10.4 22.5008 12.4C25.0008 14.4 26.2508 16.775 26.2508 19.275C26.2579 21.0029 25.7519 22.694 24.7968 24.1339C23.8417 25.5738 22.4806 26.6977 20.8859 27.3631C19.2913 28.0286 17.5351 28.2055 15.8397 27.8716C14.1444 27.5377 12.5864 26.7079 11.3633 25.4875" stroke="white" stroke-width="2" stroke-linecap="round" stroke-linejoin="round"/>
</svg>
