<svg width="300" height="300" viewBox="0 0 300 300" fill="none" xmlns="http://www.w3.org/2000/svg">
<path d="M174.156 265.968C228.183 265.968 271.98 263.069 271.98 259.494C271.98 255.919 228.183 253.02 174.156 253.02C120.129 253.02 76.332 255.919 76.332 259.494C76.332 263.069 120.129 265.968 174.156 265.968Z" fill="#EBEBEB"/>
<path d="M290.604 234.786L255.45 234.93L220.303 234.984L150 235.08L79.6985 234.984L44.5505 234.93L9.39648 234.786L44.5505 234.636L79.6985 234.582L150 234.486L220.303 234.582L255.45 234.636L290.604 234.786Z" fill="#263238"/>
<path d="M145.614 141.984C155.766 152.544 186.264 199.542 188.64 200.946C188.64 200.946 188.64 231.684 171.654 225.546C154.668 219.408 139.098 164.262 135.774 146.682C134.022 137.4 137.322 133.368 145.614 141.984Z" fill="#C95F50"/>
<path d="M143.029 178.32L174.157 174.78C174.157 174.78 154.849 149.166 144.871 140.022C134.467 130.494 129.367 131.832 134.191 149.88C139.039 168.036 143.029 178.32 143.029 178.32Z" fill="white"/>
<path d="M141.564 161.364C141.222 162.223 141.003 163.126 140.916 164.046C142.002 162.545 142.678 160.788 142.878 158.946C142.322 159.682 141.88 160.497 141.564 161.364ZM159.048 162.066C158.191 161.723 157.29 161.505 156.372 161.418C157.869 162.505 159.626 163.182 161.466 163.38C160.73 162.823 159.915 162.38 159.048 162.066ZM154.41 174.174C154.043 173.328 153.559 172.538 152.97 171.828C153.107 172.739 153.374 173.626 153.762 174.462C154.116 175.314 154.598 176.107 155.19 176.814C155.055 175.902 154.793 175.013 154.41 174.174ZM136.146 135.174C135.99 134.844 135.834 134.52 135.654 134.196C135.44 134.175 135.225 134.175 135.012 134.196C135.156 134.634 135.318 135.054 135.498 135.474C135.858 136.324 136.341 137.116 136.932 137.826C136.797 136.909 136.532 136.016 136.146 135.174ZM172.02 171.978L171.42 172.218C170.571 172.583 169.777 173.066 169.062 173.652C169.976 173.516 170.867 173.252 171.708 172.866C171.948 172.758 172.182 172.644 172.416 172.518L172.02 171.978ZM148.02 147.252C147.173 147.615 146.381 148.096 145.668 148.68C146.583 148.549 147.474 148.286 148.314 147.9C149.162 147.536 149.954 147.053 150.666 146.466C149.746 146.598 148.851 146.863 148.008 147.252H148.02ZM145.932 147.306C145.896 147.33 145.862 147.356 145.83 147.384H145.938C145.938 147.384 145.92 147.324 145.92 147.306H145.932Z" fill="white"/>
<path d="M144.521 172.722C145.247 172.554 146.009 172.488 146.747 172.386L149.039 172.068C150.581 171.852 152.129 171.66 153.677 171.468C156.773 171.108 159.869 170.73 162.971 170.424C163.823 170.34 164.681 170.256 165.533 170.19C166.385 170.124 167.333 170.124 168.233 170.058C168.287 170.058 168.287 170.136 168.233 170.142C167.471 170.256 166.715 170.43 165.953 170.55C165.191 170.67 164.381 170.778 163.595 170.874C162.053 171.072 160.499 171.252 158.951 171.426C155.903 171.756 152.849 172.104 149.789 172.374L147.233 172.59C146.339 172.668 145.433 172.8 144.533 172.794C144.526 172.791 144.52 172.787 144.516 172.781C144.511 172.776 144.508 172.769 144.506 172.761C144.505 172.754 144.506 172.747 144.509 172.74C144.511 172.733 144.516 172.727 144.521 172.722Z" fill="#263238"/>
<path opacity="0.1" d="M158.13 176.604L143.034 178.32C143.034 178.32 139.044 168.036 134.19 149.88C132.144 142.224 131.886 137.574 133.062 135.48L158.13 176.604Z" fill="black"/>
<path d="M151.662 242.34H104.316C103.926 240.816 103.548 239.34 103.17 237.84C102.738 236.142 102.312 234.486 101.904 232.872C101.814 232.512 101.718 232.152 101.628 231.798C101.316 230.562 101.01 229.362 100.71 228.198C100.53 227.484 100.35 226.782 100.176 226.086C100.002 225.39 99.8159 224.682 99.6419 224.004C99.5939 223.824 99.5519 223.644 99.5039 223.47L99.3599 222.87L99.1799 222.168C99.1139 221.922 99.0539 221.682 98.9939 221.442C98.8739 220.986 98.7599 220.536 98.6519 220.098C98.4839 219.45 98.3219 218.814 98.1659 218.196C98.0999 217.926 98.0279 217.656 97.9619 217.392C97.8479 216.96 97.7399 216.54 97.6379 216.126C97.5659 215.85 97.4999 215.58 97.4339 215.316C97.1539 214.228 96.8939 213.208 96.6539 212.256C96.5879 212.004 96.5279 211.758 96.4619 211.518C96.3599 211.104 96.2579 210.708 96.1619 210.318C96.0939 210.078 96.0339 209.844 95.9819 209.616C95.7719 208.8 95.5799 208.056 95.4179 207.402C95.3699 207.228 95.3279 207.06 95.2859 206.898C95.1779 206.466 95.0759 206.082 94.9919 205.74C94.9559 205.602 94.9259 205.47 94.8899 205.35L94.7939 204.972C94.7939 204.888 94.7519 204.804 94.7339 204.732L94.6499 204.408C94.6499 204.356 94.6379 204.308 94.6139 204.264L94.5059 203.838H140.592C140.592 203.838 142.11 209.07 144.54 217.506C145.032 219.222 145.566 221.106 146.136 223.044C147.75 228.672 149.634 235.236 151.662 242.34Z" fill="#37474F"/>
<path d="M112.067 242.34H110.867C109.115 235.088 107.417 227.822 105.773 220.542C105.373 218.77 104.973 216.998 104.573 215.226L104.465 214.728C104.463 214.711 104.468 214.693 104.477 214.679C104.487 214.665 104.502 214.654 104.519 214.65C104.535 214.646 104.553 214.647 104.569 214.655C104.584 214.663 104.597 214.676 104.603 214.692C104.603 214.746 104.633 214.8 104.651 214.854C105.183 216.758 105.713 218.664 106.241 220.572C108.269 227.808 110.211 235.064 112.067 242.34Z" fill="#263238"/>
<path d="M139.098 203.844L137.064 214.044L135.396 222.396L132.558 236.628L132.264 238.086L131.778 240.516L131.4 242.34H104.31C103.926 240.81 103.542 239.34 103.17 237.84C102.738 236.142 102.312 234.486 101.904 232.872C101.814 232.512 101.718 232.152 101.628 231.798C101.316 230.562 101.01 229.362 100.71 228.198C100.53 227.484 100.35 226.782 100.176 226.086C100.002 225.39 99.8159 224.682 99.6419 224.004C99.5939 223.824 99.5519 223.644 99.5039 223.47L99.3599 222.87L99.1799 222.168C99.1139 221.922 99.0539 221.682 98.9939 221.442C98.8739 220.986 98.7599 220.536 98.6519 220.098C98.4839 219.45 98.3219 218.814 98.1659 218.196C98.0939 217.92 98.0279 217.656 97.9619 217.392C97.8479 216.96 97.7399 216.54 97.6379 216.126C97.5659 215.85 97.4999 215.58 97.4339 215.316C97.1539 214.228 96.8939 213.208 96.6539 212.256C96.5879 212.004 96.5279 211.758 96.4619 211.518C96.3599 211.104 96.2579 210.708 96.1619 210.318C96.0939 210.078 96.0339 209.844 95.9819 209.616C95.7719 208.8 95.5799 208.056 95.4179 207.402C95.3699 207.228 95.3279 207.06 95.2859 206.898C95.1779 206.466 95.0759 206.082 94.9919 205.74C94.9559 205.602 94.9259 205.47 94.8899 205.35L94.7939 204.972C94.7939 204.888 94.7519 204.804 94.7339 204.732L94.6499 204.408C94.6499 204.356 94.6379 204.308 94.6139 204.264L94.5059 203.838L139.098 203.844Z" fill="#263238"/>
<path d="M139.104 203.826C139.104 204.078 138.912 206.826 138.468 211.026C138.342 212.226 138.192 213.594 138.018 215.034C137.748 217.308 137.418 219.834 136.998 222.468C136.29 227.094 135.366 232.14 134.166 237.072C133.74 238.872 133.272 240.606 132.774 242.328H73.2842C73.9862 233.262 74.6282 225.06 75.1382 218.598C75.8522 209.502 76.3382 203.808 76.3382 203.808H130.302L139.104 203.826Z" fill="#37474F"/>
<path d="M138.978 209.292C138.912 211.422 138.822 213.546 138.684 215.664C138.54 217.962 138.33 220.254 138.03 222.546C138.03 222.63 138.03 222.714 138 222.798C137.72 224.946 137.398 227.088 137.034 229.224C136.692 231.216 136.434 233.364 135.558 235.224C135.225 235.937 134.751 236.576 134.166 237.102C133.63 237.592 132.973 237.932 132.264 238.086C132.147 238.115 132.029 238.135 131.91 238.146H131.808C131.829 238.158 131.847 238.177 131.859 238.199C131.871 238.222 131.876 238.247 131.874 238.272C131.874 238.986 131.874 239.712 131.79 240.42C131.79 240.45 131.79 240.48 131.79 240.51C131.718 241.11 131.604 241.74 131.49 242.352H130.47V242.316C130.65 241.644 130.8 240.966 130.968 240.288C131.136 239.61 131.376 238.92 131.538 238.218C131.547 238.192 131.563 238.169 131.586 238.152C130.938 238.183 130.297 238.015 129.748 237.671C129.198 237.326 128.768 236.822 128.514 236.226C128.258 235.314 128.241 234.351 128.466 233.43C128.652 232.23 128.832 230.994 129.018 229.776C129.366 227.538 129.816 225.324 130.218 223.098L130.398 222.084C131.196 217.554 132.03 213.024 133.032 208.536C133.068 208.35 133.11 208.164 133.152 207.978C133.194 207.792 133.38 207.888 133.368 208.008C133.338 208.308 133.308 208.608 133.272 208.914C133.096 210.638 132.896 212.354 132.672 214.062C132.384 216.072 132.186 218.094 131.904 220.104C131.808 220.788 131.712 221.472 131.61 222.156C131.148 225.462 130.668 228.756 130.104 232.062C129.84 233.592 128.904 236.334 131.088 236.808C131.592 236.92 132.12 236.854 132.582 236.622C133.554 236.036 134.281 235.117 134.628 234.036C135.168 232.235 135.559 230.393 135.798 228.528C136.158 226.528 136.478 224.51 136.758 222.474C137.118 219.95 137.494 217.428 137.886 214.908C138.082 213.624 138.282 212.34 138.486 211.056L138.774 209.256C138.78 209.13 138.978 209.166 138.978 209.292Z" fill="#263238"/>
<path d="M86.3347 225.108C88.8122 225.082 91.2769 224.75 93.6727 224.118C94.7767 223.836 95.8687 223.482 96.9547 223.128C98.0307 222.831 99.0378 222.325 99.9187 221.64C101.587 220.2 102.361 217.938 103.087 215.922C103.875 213.652 104.514 211.333 105.001 208.98C105.001 208.866 105.193 208.908 105.199 209.016C105.256 211.677 104.919 214.332 104.197 216.894C103.597 219.072 102.793 221.496 101.035 223.02C99.2767 224.544 96.6787 225.192 94.3087 225.48C91.6512 225.789 88.9648 225.753 86.3167 225.372C86.2817 225.37 86.249 225.353 86.226 225.327C86.2029 225.301 86.1913 225.266 86.1937 225.231C86.1961 225.196 86.2122 225.163 86.2387 225.14C86.2651 225.117 86.2997 225.106 86.3347 225.108Z" fill="#263238"/>
<path d="M82.2 209.052C82.068 212.38 81.928 215.712 81.78 219.048C81.44 226.812 81.066 234.576 80.658 242.34H79.542C80.054 234.56 80.592 226.784 81.156 219.012C81.4 215.688 81.652 212.366 81.912 209.046C81.9128 209.008 81.9287 208.971 81.9563 208.945C81.9839 208.919 82.0208 208.904 82.059 208.905C82.0972 208.906 82.1335 208.922 82.1599 208.949C82.1864 208.977 82.2008 209.014 82.2 209.052Z" fill="#263238"/>
<path d="M149.347 228.468L68.6406 222.348C68.6406 222.348 84.8766 157.998 116.935 134.34C125.131 128.298 134.101 132.174 138.139 136.692C148.399 148.2 149.587 228.21 149.347 228.468Z" fill="white"/>
<path d="M120.667 137.268C120.328 138.126 120.11 139.026 120.019 139.944C120.571 139.211 121.016 138.403 121.339 137.544C121.677 136.686 121.895 135.786 121.987 134.868C121.436 135.602 120.992 136.41 120.667 137.268ZM111.907 171.984C111.562 172.841 111.345 173.745 111.265 174.666C112.346 173.163 113.019 171.406 113.221 169.566C112.67 170.305 112.227 171.12 111.907 171.984ZM83.0707 186.87C82.7292 187.729 82.5111 188.632 82.4227 189.552C83.5086 188.051 84.1848 186.294 84.3847 184.452C83.8384 185.194 83.3963 186.008 83.0707 186.87ZM106.345 208.8C105.996 209.655 105.778 210.557 105.697 211.476C106.778 209.973 107.451 208.216 107.653 206.376C107.102 207.117 106.662 207.933 106.345 208.8ZM141.565 161.352C141.223 162.211 141.004 163.114 140.917 164.034C142.003 162.533 142.679 160.776 142.879 158.934C142.322 159.674 141.879 160.493 141.565 161.364V161.352ZM127.201 205.002C126.852 205.857 126.631 206.759 126.547 207.678C127.098 206.946 127.541 206.137 127.861 205.278C128.202 204.421 128.42 203.52 128.509 202.602C127.959 203.335 127.518 204.143 127.201 205.002ZM98.1187 159.72C97.7766 160.577 97.5584 161.478 97.4707 162.396C98.5582 160.897 99.2327 159.138 99.4267 157.296C98.8741 158.035 98.4334 158.852 98.1187 159.72ZM130.363 148.2C129.507 147.854 128.606 147.636 127.687 147.552C128.42 148.1 129.228 148.541 130.087 148.86C130.944 149.207 131.848 149.425 132.769 149.508C132.034 148.958 131.224 148.518 130.363 148.2ZM139.507 177.126C138.651 176.782 137.749 176.564 136.831 176.478C137.563 177.029 138.371 177.469 139.231 177.786C140.086 178.132 140.988 178.352 141.907 178.44C141.174 177.896 140.365 177.461 139.507 177.15V177.126ZM141.961 211.698C141.104 211.356 140.203 211.138 139.285 211.05C140.016 211.603 140.825 212.045 141.685 212.364C142.542 212.705 143.443 212.923 144.361 213.012C143.625 212.472 142.817 212.038 141.961 211.722V211.698ZM84.5107 208.854C83.6542 208.511 82.753 208.293 81.8347 208.206C83.3324 209.293 85.0886 209.97 86.9287 210.168C86.1885 209.625 85.3742 209.19 84.5107 208.878V208.854ZM105.277 186.654C104.42 186.31 103.519 186.09 102.601 186C103.334 186.552 104.142 186.997 105.001 187.32C105.858 187.659 106.759 187.877 107.677 187.968C106.942 187.424 106.134 186.988 105.277 186.672V186.654ZM136.147 135.156C136.063 134.976 135.979 134.802 135.889 134.628C135.595 134.406 135.289 134.19 134.959 133.98C135.107 134.483 135.288 134.976 135.499 135.456C135.859 136.306 136.342 137.098 136.933 137.808C136.796 136.897 136.531 136.011 136.147 135.174V135.156ZM112.561 153.816C112.199 152.967 111.716 152.175 111.127 151.464C111.415 153.294 112.181 155.016 113.347 156.456C113.215 155.542 112.95 154.653 112.561 153.816ZM133.387 224.814C133.025 223.966 132.544 223.174 131.959 222.462C132.091 223.375 132.354 224.264 132.739 225.102C133.081 225.891 133.522 226.633 134.053 227.31H134.149C134.01 226.447 133.754 225.607 133.387 224.814ZM125.725 183C125.36 182.152 124.877 181.361 124.291 180.648C124.589 182.474 125.351 184.193 126.505 185.64C126.372 184.727 126.109 183.838 125.725 183ZM70.7527 214.884C70.7167 215.01 70.6807 215.136 70.6387 215.256C70.7167 215.34 70.7887 215.43 70.8607 215.514C70.8366 215.308 70.8006 215.104 70.7527 214.902V214.884ZM94.7527 198.876C94.3885 198.03 93.9056 197.24 93.3187 196.53C93.6087 198.358 94.3743 200.077 95.5387 201.516C95.3956 200.608 95.1249 199.726 94.7347 198.894L94.7527 198.876ZM99.9007 221.976C99.5366 221.128 99.0538 220.336 98.4667 219.624C98.7638 221.453 99.5285 223.175 100.687 224.622C100.546 223.714 100.275 222.831 99.8827 222L99.9007 221.976ZM140.263 194.184C139.415 194.549 138.624 195.032 137.911 195.618C138.824 195.483 139.713 195.219 140.551 194.832C141.402 194.47 142.196 193.987 142.909 193.398C141.986 193.535 141.089 193.806 140.245 194.202L140.263 194.184ZM76.6027 197.688L76.2967 198.516C76.9438 198.204 77.5486 197.811 78.0967 197.346C77.5816 197.413 77.0749 197.534 76.5847 197.706L76.6027 197.688ZM117.751 217.68C116.902 218.041 116.11 218.522 115.399 219.108C116.313 218.974 117.204 218.712 118.045 218.328C118.892 217.96 119.684 217.476 120.397 216.888C119.473 217.024 118.575 217.297 117.733 217.698L117.751 217.68ZM80.9527 223.032L80.5387 223.23L81.9487 223.338C82.538 223.04 83.0899 222.674 83.5927 222.246C82.673 222.387 81.7781 222.657 80.9347 223.05L80.9527 223.032ZM95.0887 173.694C94.2434 174.063 93.4522 174.546 92.7367 175.128C94.5655 174.833 96.2871 174.07 97.7347 172.914C96.8126 173.049 95.9152 173.318 95.0707 173.712L95.0887 173.694ZM115.777 196.674C114.928 197.04 114.137 197.525 113.425 198.114C115.255 197.82 116.977 197.055 118.423 195.894C117.501 196.032 116.604 196.3 115.759 196.692L115.777 196.674ZM126.577 165.084C125.731 165.452 124.939 165.934 124.225 166.518C126.053 166.228 127.774 165.465 129.217 164.304C128.291 164.44 127.39 164.709 126.541 165.102L126.577 165.084Z" fill="white"/>
<path d="M133.566 150.138C128.91 149.448 124.182 140.052 123.366 133.644C123.312 133.2 130.566 119.358 131.7 116.472C131.934 115.872 148.11 128.088 148.11 128.088C148.11 128.088 143.91 133.44 141.948 138.498C141.81 138.918 138.066 150.798 133.566 150.138Z" fill="#C95F50"/>
<path d="M148.135 128.088C148.135 128.088 143.935 133.44 141.967 138.492C141.931 138.594 141.691 139.338 141.295 140.4C132.979 136.2 129.589 128.7 128.221 123.75C129.793 120.6 131.257 117.642 131.725 116.472C131.959 115.878 148.135 128.088 148.135 128.088Z" fill="#263238"/>
<path d="M135.439 93.99C130.705 99.468 125.971 119.226 128.677 125.298C132.607 134.094 143.077 139.38 151.549 133.758C159.787 128.304 165.499 102.444 162.097 96.516C157.093 87.78 142.423 85.902 135.439 93.99Z" fill="#C95F50"/>
<path d="M148.085 110.04C147.485 110.088 146.885 110.04 146.285 110.04C145.648 110.127 145.001 110 144.443 109.68C144.288 109.545 144.181 109.362 144.14 109.161C144.099 108.959 144.125 108.749 144.215 108.564C144.45 108.226 144.77 107.956 145.143 107.783C145.517 107.61 145.93 107.54 146.339 107.58C147.181 107.53 148.011 107.796 148.667 108.324C148.806 108.455 148.905 108.623 148.951 108.808C148.997 108.994 148.989 109.188 148.928 109.369C148.866 109.55 148.754 109.709 148.605 109.828C148.456 109.947 148.275 110.021 148.085 110.04Z" fill="#263238"/>
<path d="M147.559 112.938C147.559 112.884 147.439 112.98 147.427 113.04C147.205 114.39 146.719 115.902 145.417 116.106C145.375 116.106 145.363 116.178 145.417 116.184C146.935 116.268 147.559 114.258 147.559 112.938Z" fill="#263238"/>
<path d="M146.635 111.294C144.505 110.694 143.473 115.008 145.435 115.554C147.397 116.1 148.417 111.792 146.635 111.294Z" fill="#263238"/>
<path d="M155.298 114.6C155.298 114.552 155.388 114.69 155.376 114.744C155.016 116.064 154.824 117.642 155.922 118.344C155.958 118.344 155.922 118.434 155.892 118.416C154.47 117.888 154.746 115.8 155.298 114.6Z" fill="#263238"/>
<path d="M156.822 113.496C159.006 113.844 158.148 118.182 156.126 117.858C154.104 117.534 154.992 113.202 156.822 113.496Z" fill="#263238"/>
<path d="M159.036 111.36C158.485 111.104 157.948 110.817 157.428 110.502C156.818 110.277 156.301 109.854 155.958 109.302C155.883 109.109 155.874 108.896 155.933 108.698C155.991 108.499 156.114 108.325 156.282 108.204C157.02 107.724 157.872 107.946 158.628 108.318C159.399 108.669 160.013 109.293 160.35 110.07C160.421 110.253 160.437 110.452 160.396 110.644C160.355 110.835 160.258 111.011 160.118 111.148C159.978 111.285 159.801 111.378 159.609 111.416C159.417 111.454 159.218 111.434 159.036 111.36Z" fill="#263238"/>
<path d="M143.094 124.488C143.334 124.878 143.55 125.382 144.024 125.538C144.525 125.646 145.042 125.646 145.542 125.538C145.553 125.537 145.563 125.539 145.571 125.545C145.58 125.55 145.587 125.558 145.591 125.567C145.595 125.576 145.596 125.587 145.594 125.596C145.591 125.606 145.586 125.615 145.578 125.622C145.326 125.838 145.02 125.981 144.692 126.037C144.365 126.093 144.028 126.06 143.718 125.94C143.463 125.805 143.253 125.598 143.117 125.343C142.98 125.089 142.922 124.799 142.95 124.512C142.95 124.434 143.058 124.428 143.094 124.488Z" fill="#263238"/>
<path d="M145.446 120.834C145.66 121.442 145.997 121.999 146.436 122.47C146.874 122.942 147.406 123.318 147.996 123.576C148.509 123.808 149.053 123.965 149.61 124.044C149.715 124.067 149.821 124.08 149.928 124.08C150.03 124.086 150.132 124.086 150.234 124.08C150.308 124.085 150.382 124.064 150.443 124.021C150.504 123.979 150.549 123.917 150.57 123.846C150.573 123.798 150.573 123.75 150.57 123.702V123.582C150.84 122.562 151.116 120.978 151.116 120.978C151.446 121.254 153.15 122.574 153.252 122.028C154.05 117.528 154.932 112.524 154.776 107.874C154.776 107.841 154.763 107.809 154.739 107.785C154.716 107.761 154.684 107.748 154.65 107.748C154.617 107.748 154.585 107.761 154.561 107.785C154.537 107.809 154.524 107.841 154.524 107.874C153.588 112.17 153.414 116.604 152.538 120.936C151.951 120.454 151.299 120.058 150.6 119.76C150.444 119.76 150.126 122.832 149.964 123.276C149.966 123.292 149.966 123.308 149.964 123.324C148.164 123.132 147.012 122.298 145.614 120.744C145.524 120.642 145.392 120.708 145.446 120.834Z" fill="#263238"/>
<path d="M149.13 123.378C148.391 123.974 147.51 124.371 146.574 124.53C146.061 124.601 145.539 124.511 145.08 124.272C144.084 123.738 144.288 122.754 144.684 121.962C144.899 121.545 145.163 121.154 145.47 120.798C146.383 122.027 147.666 122.931 149.13 123.378Z" fill="#263238"/>
<path d="M146.574 124.53C146.061 124.601 145.539 124.511 145.08 124.272C144.084 123.738 144.288 122.754 144.684 121.962C145.8 122.352 146.742 123.402 146.574 124.53Z" fill="#FF97B8"/>
<path d="M163.908 104.208C155.508 107.724 147.012 97.998 147.012 97.998C146.049 99.4741 144.636 100.6 142.981 101.207C141.327 101.815 139.521 101.872 137.832 101.37C137.832 101.37 133.8 113.532 130.512 112.8C125.514 111.732 127.512 94.416 129.774 91.404C132.036 88.392 136.476 88.404 136.476 88.404C136.476 88.404 137.322 85.878 140.91 84.156C144.87 82.248 155.91 88.23 155.91 88.23C156.912 86.7929 158.238 85.6112 159.78 84.78C160.152 84.5708 160.563 84.4393 160.988 84.3935C161.412 84.3477 161.842 84.3886 162.25 84.5137C162.659 84.6388 163.037 84.8455 163.364 85.1213C163.69 85.397 163.957 85.7361 164.148 86.118C163.328 86.9065 162.699 87.8707 162.306 88.938C160.956 92.466 163.938 93.084 164.604 89.766C164.893 88.5346 164.731 87.2403 164.148 86.118C166.068 84.258 168.618 84.054 169.836 85.518C172.074 88.2 170.898 101.292 163.908 104.208Z" fill="#263238"/>
<path d="M143.304 119.616C142.27 119.285 141.35 118.67 140.649 117.841C139.948 117.013 139.494 116.004 139.338 114.93C139.182 113.856 139.33 112.759 139.767 111.766C140.203 110.772 140.91 109.921 141.807 109.309C142.703 108.697 143.754 108.349 144.838 108.305C145.923 108.261 146.998 108.523 147.941 109.06C148.884 109.597 149.658 110.388 150.173 111.343C150.689 112.298 150.926 113.379 150.858 114.462C150.801 115.342 150.545 116.197 150.108 116.963C149.671 117.728 149.066 118.385 148.338 118.881C147.61 119.378 146.778 119.703 145.906 119.83C145.033 119.957 144.144 119.884 143.304 119.616ZM146.616 109.326C146.227 109.2 145.824 109.121 145.416 109.092C144.137 109.001 142.872 109.402 141.878 110.212C140.884 111.022 140.237 112.181 140.069 113.452C139.901 114.723 140.224 116.01 140.972 117.052C141.72 118.093 142.838 118.809 144.096 119.054C145.354 119.3 146.659 119.056 147.744 118.372C148.828 117.688 149.611 116.617 149.933 115.376C150.254 114.134 150.09 112.817 149.474 111.693C148.857 110.569 147.835 109.722 146.616 109.326Z" fill="white"/>
<path d="M156.091 122.04C154.015 121.26 152.935 118.44 153.691 115.494C154.013 114.085 154.771 112.812 155.857 111.858C156.295 111.416 156.841 111.095 157.441 110.927C158.041 110.759 158.674 110.749 159.279 110.899C159.884 111.049 160.439 111.353 160.891 111.782C161.343 112.211 161.675 112.75 161.857 113.346C162.365 114.7 162.439 116.179 162.067 117.576C161.299 120.672 158.797 122.73 156.487 122.154C156.351 122.128 156.219 122.09 156.091 122.04ZM159.337 111.75L159.055 111.666C158.57 111.568 158.069 111.588 157.593 111.725C157.118 111.862 156.683 112.111 156.325 112.452C155.366 113.303 154.697 114.431 154.411 115.68C153.745 118.368 154.735 120.936 156.637 121.404C158.539 121.872 160.615 120.072 161.281 117.39C161.615 116.152 161.552 114.84 161.101 113.64C160.956 113.219 160.724 112.833 160.42 112.507C160.116 112.182 159.747 111.924 159.337 111.75Z" fill="white"/>
<path d="M150.54 115.086L150.168 114.408C151.17 113.85 153.354 113.274 154.452 115.008L153.792 115.416C152.814 113.862 150.63 115.032 150.54 115.086Z" fill="white"/>
<path d="M124.932 111.546L124.332 111.066C124.56 110.784 126.582 108.306 128.328 108.366C129.966 108.426 139.962 111.366 140.388 111.516L140.166 112.26C137.298 111.408 129.57 109.182 128.304 109.14C127.14 109.098 125.478 110.862 124.932 111.546Z" fill="white"/>
<path d="M132.654 111.672C132.654 111.672 131.04 103.944 127.704 104.274C124.368 104.604 123.804 114.546 126.474 117.084C126.793 117.433 127.179 117.714 127.61 117.909C128.04 118.105 128.505 118.212 128.978 118.223C129.45 118.234 129.92 118.15 130.359 117.975C130.798 117.799 131.197 117.537 131.532 117.204L132.654 111.672Z" fill="#C95F50"/>
<path d="M127.613 107.13C127.565 107.1 127.523 107.166 127.559 107.208C129.401 109.056 129.683 111.618 129.593 114.102C129.281 112.998 128.573 112.158 127.133 112.476C127.061 112.476 127.079 112.602 127.133 112.62C127.578 112.661 127.998 112.84 128.336 113.131C128.674 113.423 128.912 113.813 129.017 114.246C129.193 114.97 129.292 115.71 129.311 116.454C129.311 116.7 129.731 116.748 129.755 116.454C129.752 116.434 129.752 116.414 129.755 116.394C131.039 113.622 130.535 108.714 127.613 107.13Z" fill="#263238"/>
<path d="M173.791 165.912C175.309 161.916 210.505 169.152 209.101 175.278C203.947 197.718 189.583 217.77 185.953 222.354C181.189 228.354 171.709 227.022 168.253 223.386C163.243 218.112 172.291 169.872 173.791 165.912Z" fill="#C95F50"/>
<path d="M171.311 176.928C170.529 179.078 169.909 181.285 169.457 183.528C168.947 185.748 168.503 187.98 168.143 190.224C167.432 194.763 167.031 199.346 166.943 203.94C166.877 206.508 166.943 209.07 166.943 211.638C166.943 211.698 167.039 211.692 167.039 211.638C167.039 209.364 167.177 207.072 167.363 204.804C167.549 202.536 167.777 200.226 168.071 197.952C168.641 193.482 169.271 189.018 170.081 184.584C170.305 183.34 170.539 182.1 170.783 180.864C171.041 179.58 171.335 178.302 171.503 177C171.503 176.904 171.353 176.82 171.311 176.928Z" fill="#263238"/>
<path d="M165.299 102.666C165.068 105.722 164.61 108.756 163.931 111.744C163.817 112.254 163.691 112.776 163.565 113.292C163.061 115.344 162.461 117.408 161.765 119.394C161.605 119.874 161.437 120.348 161.261 120.816C159.131 126.57 156.317 131.52 153.149 133.62C152.345 134.159 151.491 134.622 150.599 135C146.058 132.351 142.265 128.591 139.578 124.072C136.891 119.553 135.398 114.425 135.239 109.17L134.279 108.906C134.429 108.672 134.585 108.432 134.735 108.18C134.885 107.928 135.071 107.61 135.233 107.31C135.474 99.5852 138.594 92.2294 143.981 86.688C151.523 84.66 160.553 87.558 164.351 94.176C165.275 95.814 165.557 98.898 165.299 102.666Z" fill="#C95F50"/>
<path d="M149.49 108.498C148.852 108.531 148.213 108.531 147.576 108.498C146.838 108.498 146.25 108.552 145.62 108.114C145.45 107.97 145.334 107.774 145.291 107.556C145.247 107.338 145.278 107.112 145.38 106.914C145.842 106.098 146.742 105.888 147.63 105.87C148.521 105.817 149.4 106.097 150.096 106.656C150.25 106.793 150.361 106.972 150.415 107.171C150.469 107.37 150.463 107.58 150.398 107.776C150.334 107.972 150.214 108.145 150.052 108.273C149.891 108.401 149.695 108.48 149.49 108.498Z" fill="#263238"/>
<path d="M148.933 111.6C148.933 111.546 148.807 111.648 148.795 111.702C148.561 113.136 148.045 114.738 146.665 114.954C146.623 114.954 146.611 115.032 146.665 115.038C148.273 115.098 148.933 112.968 148.933 111.6Z" fill="#263238"/>
<path d="M147.954 109.83C145.698 109.2 144.606 113.76 146.694 114.342C148.782 114.924 149.844 110.358 147.954 109.83Z" fill="#263238"/>
<path d="M157.134 113.328C157.134 113.28 157.23 113.424 157.212 113.484C156.828 114.882 156.612 116.55 157.812 117.324C157.848 117.324 157.812 117.42 157.782 117.402C156.258 116.808 156.546 114.6 157.134 113.328Z" fill="#263238"/>
<path d="M158.749 112.158C161.059 112.53 160.147 117.126 158.005 116.784C155.863 116.442 156.811 111.846 158.749 112.158Z" fill="#263238"/>
<path d="M161.088 109.896C160.488 109.638 159.966 109.296 159.39 108.99C158.747 108.754 158.199 108.313 157.83 107.736C157.751 107.532 157.742 107.308 157.804 107.099C157.866 106.889 157.995 106.706 158.172 106.578C158.958 106.068 159.858 106.302 160.656 106.698C161.465 107.072 162.106 107.733 162.456 108.552C162.524 108.742 162.537 108.947 162.492 109.144C162.447 109.341 162.346 109.52 162.202 109.662C162.058 109.803 161.877 109.9 161.679 109.942C161.482 109.983 161.277 109.967 161.088 109.896Z" fill="#263238"/>
<path d="M144.204 123.804C144.462 124.212 144.69 124.746 145.194 124.914C145.722 125.031 146.269 125.031 146.796 124.914C146.807 124.914 146.817 124.916 146.826 124.922C146.835 124.927 146.843 124.936 146.847 124.945C146.851 124.955 146.853 124.965 146.851 124.976C146.85 124.986 146.845 124.996 146.838 125.004C146.57 125.233 146.245 125.386 145.898 125.445C145.55 125.504 145.193 125.468 144.864 125.34C144.595 125.196 144.374 124.976 144.23 124.707C144.085 124.438 144.024 124.132 144.054 123.828C144.048 123.744 144.162 123.744 144.204 123.804Z" fill="#263238"/>
<path d="M146.7 119.928C146.924 120.573 147.279 121.164 147.743 121.665C148.206 122.166 148.769 122.565 149.394 122.838C149.938 123.083 150.514 123.249 151.104 123.33C151.217 123.355 151.331 123.369 151.446 123.372C151.552 123.379 151.658 123.379 151.764 123.372C151.843 123.377 151.921 123.356 151.987 123.311C152.052 123.266 152.1 123.201 152.124 123.126C152.13 123.078 152.13 123.03 152.124 122.982V122.856C152.412 121.776 152.724 120.096 152.724 120.096C153.072 120.39 154.878 121.788 154.98 121.212C155.826 116.412 156.78 111.138 156.6 106.212C156.6 106.177 156.586 106.143 156.562 106.119C156.537 106.094 156.503 106.08 156.468 106.08C156.433 106.08 156.4 106.094 156.375 106.119C156.35 106.143 156.336 106.177 156.336 106.212C155.34 110.76 155.136 115.458 154.23 120.012C153.588 119.515 152.879 119.111 152.124 118.812C151.962 118.812 151.62 122.064 151.452 122.538C151.455 122.554 151.455 122.57 151.452 122.586C149.574 122.382 148.326 121.506 146.85 119.85C146.778 119.73 146.64 119.796 146.7 119.928Z" fill="#263238"/>
<path d="M150.601 122.628C149.817 123.254 148.885 123.668 147.895 123.828C147.353 123.906 146.8 123.809 146.317 123.552C145.255 122.988 145.477 121.944 145.897 121.11C146.123 120.667 146.401 120.252 146.725 119.874C147.69 121.182 149.048 122.148 150.601 122.628Z" fill="#263238"/>
<path d="M147.887 123.846C147.345 123.924 146.793 123.827 146.309 123.57C145.247 123.006 145.469 121.962 145.889 121.128C147.065 121.542 148.067 122.646 147.887 123.846Z" fill="#FF97B8"/>
<path d="M166.249 102.324C165.931 102.456 165.613 102.57 165.301 102.666C156.709 105.33 148.351 95.742 148.351 95.742C147.336 97.3104 145.841 98.5084 144.089 99.1572C142.337 99.8061 140.422 99.8709 138.631 99.342C137.699 102.088 136.558 104.757 135.217 107.328C135.378 102.226 136.797 97.2427 139.346 92.8205C141.896 88.3983 145.498 84.6739 149.833 81.978C152.57 82.9384 155.233 84.0974 157.801 85.446C158.864 83.924 160.27 82.6725 161.905 81.792C162.299 81.5701 162.734 81.4304 163.183 81.3814C163.632 81.3324 164.087 81.3751 164.52 81.5069C164.952 81.6387 165.353 81.8569 165.699 82.1483C166.045 82.4396 166.328 82.7981 166.531 83.202C165.665 84.0437 164.998 85.0689 164.581 86.202C163.153 89.934 166.309 90.588 167.011 87.078C167.321 85.7722 167.15 84.3984 166.531 83.208C168.565 81.246 171.265 81.03 172.531 82.608C174.895 85.38 173.659 99.234 166.249 102.324Z" fill="#263238"/>
<path d="M150.221 108.084C149.223 107.252 147.985 106.76 146.687 106.68C146.297 106.655 145.905 106.669 145.517 106.722C144.545 106.848 143.617 107.205 142.811 107.763C142.005 108.322 141.345 109.066 140.885 109.932C140.753 110.174 140.64 110.427 140.549 110.688C140.341 111.242 140.218 111.825 140.183 112.416C140.1 113.778 140.471 115.128 141.239 116.256C142.007 117.383 143.128 118.223 144.425 118.644C144.913 118.797 145.416 118.892 145.925 118.926H146.309C147.78 118.929 149.204 118.404 150.321 117.448C151.438 116.491 152.176 115.166 152.399 113.712C152.399 113.538 152.441 113.364 152.453 113.184C152.465 113.004 152.453 112.92 152.453 112.794C152.451 111.893 152.25 111.003 151.865 110.189C151.479 109.375 150.918 108.656 150.221 108.084ZM145.973 118.104C144.683 118.021 143.468 117.472 142.554 116.558C141.64 115.643 141.09 114.428 141.008 113.138C140.926 111.848 141.316 110.572 142.106 109.549C142.897 108.526 144.032 107.826 145.301 107.58C145.742 107.495 146.192 107.466 146.639 107.496C147.08 107.525 147.515 107.607 147.935 107.742C148.471 107.914 148.976 108.171 149.429 108.504C150.362 109.179 151.05 110.139 151.389 111.239C151.729 112.34 151.702 113.52 151.312 114.604C150.922 115.687 150.19 116.614 149.227 117.245C148.264 117.877 147.122 118.178 145.973 118.104Z" fill="white"/>
<path d="M164.04 112.002L163.932 111.744C163.565 110.9 162.933 110.199 162.132 109.746C161.874 109.602 161.597 109.493 161.31 109.422C160.892 109.32 160.459 109.296 160.032 109.35C159.162 109.472 158.347 109.845 157.686 110.424C157.19 110.847 156.761 111.342 156.414 111.894C156.15 112.303 155.926 112.737 155.748 113.19C155.626 113.482 155.525 113.783 155.448 114.09C155.427 114.151 155.409 114.213 155.394 114.276C155.038 115.636 155.076 117.07 155.502 118.41C155.68 119.031 155.993 119.604 156.42 120.089C156.846 120.573 157.375 120.957 157.968 121.212C158.094 121.26 158.22 121.296 158.352 121.332C158.849 121.445 159.363 121.457 159.865 121.369C160.367 121.28 160.846 121.092 161.274 120.816C162.802 119.817 163.879 118.26 164.274 116.478C164.666 114.998 164.584 113.433 164.04 112.002ZM163.44 116.28C163.167 117.45 162.585 118.526 161.754 119.394C161.363 119.85 160.859 120.195 160.292 120.395C159.726 120.595 159.117 120.643 158.526 120.534C156.51 120.036 155.46 117.318 156.168 114.474C156.471 113.152 157.177 111.956 158.19 111.054C158.571 110.693 159.033 110.43 159.538 110.284C160.042 110.139 160.574 110.117 161.088 110.22C161.188 110.244 161.286 110.274 161.382 110.31C161.817 110.495 162.207 110.769 162.53 111.114C162.852 111.459 163.099 111.868 163.254 112.314C163.382 112.63 163.479 112.957 163.542 113.292C163.734 114.282 163.707 115.302 163.464 116.28H163.44Z" fill="white"/>
<path d="M152.087 113.844L151.697 113.124C152.759 112.524 155.075 111.924 156.233 113.784L155.537 114.216C154.499 112.548 152.189 113.79 152.087 113.844Z" fill="white"/>
<path d="M141.33 110.064L141.096 110.85L140.55 110.688C139.2 110.292 137.208 109.716 135.222 109.164L134.262 108.9C134.412 108.666 134.568 108.426 134.718 108.174L135.204 108.312C137.604 108.972 139.926 109.65 140.886 109.932L141.33 110.064Z" fill="white"/>
<g opacity="0.3">
<path d="M172.8 138.474C166.822 139.791 160.588 139.305 154.886 137.078C149.184 134.852 144.271 130.984 140.767 125.965C137.263 120.946 135.326 115.001 135.202 108.881C135.077 102.761 136.77 96.7418 140.066 91.5841C143.363 86.4264 148.114 82.362 153.721 79.905C159.327 77.4479 165.536 76.7086 171.563 77.7805C177.589 78.8524 183.163 81.6874 187.578 85.9268C191.993 90.1663 195.052 95.6199 196.368 101.598C197.242 105.567 197.326 109.669 196.615 113.67C195.904 117.672 194.411 121.494 192.222 124.918C190.034 128.342 187.192 131.302 183.86 133.628C180.527 135.954 176.769 137.601 172.8 138.474Z" fill="white"/>
<path d="M139.002 123.108C142.922 130.264 149.509 135.584 157.329 137.911C165.15 140.237 173.573 139.383 180.768 135.534L139.002 123.108Z" fill="#EBEBEB"/>
<path d="M139.891 91.89L197.095 108.912C197.144 106.454 196.903 103.999 196.375 101.598C195.776 98.8435 194.797 96.1859 193.465 93.702L151.237 81.132C146.597 83.6886 142.69 87.3926 139.891 91.89Z" fill="#EBEBEB"/>
<path d="M135.426 111.864L189.912 128.064C191.211 126.505 192.354 124.823 193.326 123.042L135.306 105.774C135.139 107.803 135.179 109.843 135.426 111.864Z" fill="#EBEBEB"/>
<path d="M137.91 95.634L196.71 113.136C196.77 112.764 196.824 112.392 196.866 112.02L138.378 94.62C138.216 94.95 138.054 95.286 137.91 95.634Z" fill="#EBEBEB"/>
<path d="M161.027 77.736L187.127 85.5C186.449 84.87 185.735 84.3 184.997 83.7L163.799 77.4C162.87 77.4644 161.945 77.5765 161.027 77.736Z" fill="#EBEBEB"/>
</g>
<path d="M177.06 176.731L185.006 174.981L177.311 140.041L169.365 141.791L177.06 176.731Z" fill="#EBEBEB"/>
<path d="M199.753 100.854C198.29 94.2088 194.889 88.1467 189.98 83.4344C185.072 78.722 178.876 75.571 172.177 74.3799C165.477 73.1887 158.575 74.0108 152.343 76.7423C146.111 79.4738 140.829 83.9919 137.165 89.7254C133.5 95.4589 131.619 102.15 131.757 108.953C131.896 115.756 134.048 122.365 137.943 127.945C141.838 133.524 147.3 137.824 153.638 140.299C159.976 142.775 166.906 143.315 173.551 141.852C182.461 139.887 190.226 134.465 195.139 126.777C200.052 119.089 201.712 109.765 199.753 100.854ZM172.801 138.474C166.823 139.792 160.589 139.307 154.887 137.082C149.184 134.856 144.27 130.989 140.765 125.971C137.26 120.952 135.323 115.006 135.197 108.886C135.072 102.766 136.764 96.7466 140.06 91.5884C143.356 86.4301 148.107 82.3651 153.713 79.9074C159.32 77.4498 165.529 76.7099 171.556 77.7814C177.583 78.8528 183.156 81.6875 187.572 85.9268C191.988 90.1662 195.047 95.6198 196.363 101.598C197.237 105.566 197.322 109.668 196.611 113.669C195.9 117.67 194.408 121.492 192.22 124.916C190.032 128.34 187.191 131.3 183.859 133.627C180.527 135.953 176.77 137.6 172.801 138.474Z" fill="#455A64"/>
<path d="M180.342 201.318L192.36 198.672L185.544 167.694L173.52 170.34L180.342 201.318Z" fill="#263238"/>
<path d="M185.586 104.196C185.573 104.161 185.563 104.125 185.556 104.088C185.412 103.572 185.712 104.586 185.604 104.25C185.496 103.914 185.34 103.44 185.19 103.05C184.665 101.658 184.023 100.313 183.27 99.03C183.168 98.85 183.054 98.67 182.952 98.49C182.916 98.43 183.216 98.91 182.952 98.532L182.742 98.208C182.466 97.794 182.184 97.386 181.89 97.008C181.24 96.13 180.533 95.2961 179.772 94.512L179.22 93.96C178.968 93.714 179.514 94.23 179.166 93.912L178.818 93.594C178.368 93.204 177.906 92.826 177.426 92.466C176.946 92.106 176.376 91.71 175.83 91.368C175.578 91.212 175.326 91.062 175.068 90.918C174.624 90.66 175.26 91.008 174.93 90.84L174.456 90.6C173.023 89.8947 171.523 89.332 169.98 88.92H169.902L169.734 88.884L169.044 88.734C168.594 88.644 168.15 88.566 167.694 88.5C166.741 88.3636 165.782 88.2755 164.82 88.236C164.553 88.2057 164.294 88.123 164.059 87.9928C163.824 87.8625 163.617 87.6872 163.449 87.4769C163.111 87.0521 162.956 86.5104 163.017 85.971C163.078 85.4315 163.351 84.9385 163.776 84.6004C164.201 84.2623 164.743 84.1067 165.282 84.168C171.413 84.3577 177.275 86.7252 181.818 90.846C184.836 93.6724 187.196 97.128 188.73 100.968C189.081 101.825 189.374 102.705 189.606 103.602C189.689 104.138 189.556 104.685 189.237 105.124C188.918 105.562 188.438 105.856 187.902 105.942C187.368 106.014 186.826 105.877 186.39 105.559C185.954 105.242 185.658 104.769 185.562 104.238L185.586 104.196Z" fill="white"/>
<path d="M186.426 110.226C186.487 110.621 186.663 110.988 186.933 111.282C187.203 111.576 187.555 111.783 187.943 111.878C188.33 111.972 188.738 111.949 189.112 111.811C189.487 111.674 189.813 111.428 190.048 111.106C190.283 110.783 190.417 110.398 190.433 109.999C190.449 109.6 190.346 109.205 190.137 108.865C189.928 108.525 189.624 108.254 189.261 108.087C188.898 107.92 188.494 107.865 188.1 107.928C187.574 108.012 187.103 108.301 186.789 108.732C186.475 109.162 186.345 109.699 186.426 110.226Z" fill="white"/>
<path d="M206.737 182.292C206.737 182.292 215.329 168.168 204.631 154.692C200.227 149.148 189.835 139.206 168.751 140.592C163.747 140.922 156.853 144.936 165.217 147.366C171.157 149.094 175.447 148.392 178.723 150.024C178.723 150.024 170.557 156.174 171.085 161.172C171.319 163.404 171.493 168.282 172.783 172.926C172.783 172.926 174.475 174.126 175.849 173.922C175.849 173.922 179.551 184.602 192.865 187.884L206.737 182.292Z" fill="#C95F50"/>
<path d="M200.112 152.88C196.668 151.506 189.312 148.722 182.502 148.53C174.936 148.32 160.302 149.958 160.212 155.544C160.14 159.642 165.78 159.504 165.78 159.504C165.78 159.504 159.876 161.454 160.626 165.168C161.304 168.552 165.66 168.168 165.66 168.168C165.66 168.168 162.282 169.968 163.566 173.1C165.108 176.868 171.93 172.5 176.766 174.948C177.882 175.524 200.112 152.88 200.112 152.88Z" fill="#C95F50"/>
<path d="M183.601 156.558C180.151 155.802 171.865 156.09 165.853 159.372C165.715 159.444 165.697 159.588 165.853 159.546C171.629 157.861 177.589 156.882 183.601 156.63C183.655 156.63 183.655 156.6 183.601 156.558Z" fill="#263238"/>
<path d="M183.181 164.19C180.133 163.842 171.607 164.52 165.631 168.054C165.493 168.132 165.487 168.276 165.631 168.228C171.316 166.246 177.208 164.916 183.193 164.262C183.203 164.26 183.211 164.255 183.217 164.247C183.222 164.239 183.225 164.229 183.223 164.22C183.222 164.21 183.216 164.202 183.208 164.196C183.201 164.191 183.191 164.188 183.181 164.19Z" fill="#263238"/>
<path d="M195.462 188.802C192.408 188.077 189.46 186.962 186.69 185.484C183.902 183.975 181.434 181.937 179.424 179.484C178.824 178.734 178.224 177.954 177.702 177.156C177.18 176.358 176.604 175.452 175.986 174.66C175.938 174.6 175.824 174.66 175.86 174.714C176.556 176.379 177.412 177.973 178.416 179.472C179.317 180.874 180.394 182.154 181.62 183.282C184.042 185.436 186.91 187.026 190.02 187.938C191.786 188.43 193.594 188.757 195.42 188.916C195.51 188.94 195.546 188.82 195.462 188.802Z" fill="#263238"/>
<path d="M107.88 143.604C92.4237 164.358 66.6297 218.448 62.8377 226.404C60.2637 231.804 88.4817 246.024 89.6757 242.1C91.2117 237.072 116.442 170.7 119.976 146.502C121.908 133.236 113.226 136.422 107.88 143.604Z" fill="#C95F50"/>
<path d="M90.4382 239.4C89.7842 244.29 86.4602 254.142 83.9882 255.648C81.5162 257.154 68.5262 256.848 61.9802 256.848C55.4342 256.848 54.1802 255.018 54.2582 252.768C54.3362 250.518 68.1002 250.086 68.1002 250.086C68.1002 250.086 49.7522 255.318 45.1382 256.2C40.5242 257.082 29.8982 259.74 28.3382 255.918C27.6482 254.19 30.5582 252.444 30.5582 252.444C30.5582 252.444 26.1002 253.746 25.3862 251.532C24.5822 249.006 28.1282 247.62 28.1282 247.62C28.1282 247.62 25.3382 248.178 25.2722 246.12C25.1522 241.5 42.6002 239.244 42.6002 239.244C42.6002 239.244 29.2442 245.748 28.8002 241.992C28.2002 236.802 55.5842 231.108 58.4342 228.846C60.5078 227.117 62.4474 225.234 64.2362 223.212L90.4382 239.4Z" fill="#C95F50"/>
<path d="M54.3537 253.884C54.3075 253.565 54.3378 253.24 54.4421 252.935C54.5464 252.631 54.7218 252.355 54.9537 252.132C55.4242 251.701 55.9637 251.352 56.5497 251.1C57.7602 250.586 59.0155 250.184 60.2997 249.9C62.8797 249.246 65.5257 248.784 68.1597 248.1C65.4446 248.059 62.7351 248.362 60.0957 249C58.7471 249.309 57.4485 249.806 56.2377 250.476C55.6109 250.82 55.0615 251.29 54.6237 251.856C54.4085 252.142 54.2706 252.479 54.2233 252.835C54.1761 253.19 54.221 253.551 54.3537 253.884Z" fill="#263238"/>
<path d="M30.6006 252.42C32.4906 251.958 34.3506 251.43 36.2046 250.89C38.0586 250.35 39.9066 249.786 41.7546 249.228L47.2806 247.5C49.1226 246.9 50.9646 246.348 52.8246 245.79C50.8936 246.002 48.9793 246.345 47.0946 246.816C45.1986 247.248 43.3386 247.788 41.4846 248.352C39.6306 248.916 37.7946 249.552 35.9826 250.224C34.1706 250.896 32.3406 251.604 30.6006 252.42Z" fill="#263238"/>
<path d="M48.3725 241.2C46.5927 241.312 44.8238 241.556 43.0805 241.932C41.3312 242.28 39.6025 242.724 37.9025 243.264C36.1983 243.792 34.5256 244.417 32.8925 245.136C31.2535 245.836 29.6674 246.655 28.1465 247.584C29.8325 246.984 31.4765 246.354 33.1505 245.784C34.8245 245.214 36.4925 244.65 38.1785 244.134C39.8645 243.618 41.5505 243.108 43.2485 242.61C44.9465 242.112 46.6505 241.68 48.3725 241.2Z" fill="#263238"/>
<path d="M45.6724 236.832C42.8058 237.063 39.9818 237.668 37.2724 238.632C34.5365 239.538 31.9321 240.801 29.5264 242.388C32.2384 241.422 34.8784 240.402 37.5724 239.502C40.2664 238.602 42.9364 237.714 45.6724 236.832Z" fill="#263238"/>
<path d="M114.45 179.178L83.1299 178.314C83.1299 178.314 100.2 151.146 109.344 141.18C118.89 130.8 124.086 131.694 120.828 150.084C117.546 168.6 114.45 179.178 114.45 179.178Z" fill="white"/>
<path d="M95.0707 173.712C94.2255 174.081 93.4343 174.564 92.7188 175.146C94.5476 174.851 96.2692 174.088 97.7168 172.932C96.8018 173.063 95.9106 173.326 95.0707 173.712ZM112.561 153.816C112.199 152.967 111.716 152.175 111.127 151.464C111.415 153.294 112.181 155.016 113.347 156.456C113.215 155.542 112.95 154.653 112.561 153.816ZM98.1187 159.72C97.7766 160.577 97.5584 161.478 97.4707 162.396C98.5582 160.897 99.2328 159.138 99.4268 157.296C98.8742 158.035 98.4335 158.852 98.1187 159.72ZM111.919 171.984C111.574 172.841 111.357 173.745 111.277 174.666C112.358 173.163 113.031 171.406 113.233 169.566C112.678 170.305 112.231 171.119 111.907 171.984H111.919ZM121.099 136.314C120.949 136.626 120.811 136.944 120.679 137.268C120.34 138.126 120.122 139.026 120.031 139.944C120.583 139.211 121.028 138.403 121.351 137.544C121.381 137.466 121.405 137.394 121.429 137.316C121.343 136.973 121.229 136.638 121.087 136.314H121.099Z" fill="white"/>
<path d="M112.488 173.73C111.744 173.622 110.982 173.622 110.238 173.586L107.928 173.46C106.376 173.384 104.818 173.322 103.254 173.274C100.134 173.178 97.02 173.07 93.906 173.028C93.048 173.028 92.19 173.028 91.332 173.028C90.474 173.028 89.532 173.118 88.632 173.124C88.578 173.124 88.584 173.208 88.632 173.208C89.4 173.256 90.168 173.37 90.942 173.418C91.716 173.466 92.52 173.514 93.312 173.544C94.872 173.604 96.432 173.658 97.992 173.694C101.058 173.766 104.13 173.85 107.196 173.856H109.8C110.694 173.856 111.6 173.904 112.5 173.826C112.524 173.808 112.536 173.736 112.488 173.73Z" fill="#263238"/>
<path d="M120.523 158.808C120.523 158.748 120.451 158.712 120.421 158.772C119.84 159.842 119.342 160.955 118.933 162.102C119.041 161.556 119.167 161.01 119.269 160.458C119.611 158.694 119.923 156.918 120.271 155.154C120.267 155.143 120.26 155.134 120.251 155.128C120.242 155.121 120.231 155.118 120.22 155.118C120.208 155.118 120.197 155.121 120.188 155.128C120.179 155.134 120.172 155.143 120.169 155.154C119.359 158.19 118.417 161.196 117.697 164.256C116.977 167.316 116.251 170.376 115.579 173.448C115.213 175.146 114.883 177.264 114.511 178.956C113.605 179.064 112.441 178.956 111.463 179.082C111.379 179.082 111.403 179.232 111.463 179.232C112.495 179.262 113.725 179.496 114.811 179.43C114.949 179.43 117.577 168.516 118.669 163.29C119.341 161.802 119.965 160.314 120.523 158.808Z" fill="#263238"/>
<path d="M142.801 141.84C142.363 143.274 141.865 144.69 141.295 146.076C140.819 147.325 140.235 148.529 139.549 149.676C138.253 151.722 136.261 153.414 133.735 153.408C131.335 153.408 129.139 152.016 127.603 150.24C125.923 148.302 124.807 145.872 123.805 143.532C123.205 142.086 122.605 140.61 122.125 139.116C121.879 138.36 121.621 137.604 121.405 136.836C121.189 136.068 121.003 135.294 120.739 134.544C120.739 134.484 120.607 134.49 120.625 134.544C121.069 136.272 122.359 141.744 122.875 143.136C123.823 145.686 124.891 148.32 126.601 150.468C128.221 152.496 130.423 154.032 133.057 154.284C135.691 154.536 137.947 153.15 139.399 151.062C140.252 149.747 140.919 148.319 141.379 146.82C141.937 145.176 142.405 143.49 142.831 141.804C142.855 141.828 142.801 141.822 142.801 141.84Z" fill="#263238"/>
<path d="M241.116 258.3H198.09L196.17 220.476H241.116V258.3Z" fill="#DBDBDB"/>
<path d="M241.115 220.476L256.571 201.126L268.871 220.476L266.951 258.3H241.115V220.476Z" fill="#C7C7C7"/>
<path d="M211.187 194.982H257.117L273.683 222.006H268.349L257.117 203.298L244.163 224.238H192.377L211.187 194.982Z" fill="#A6A6A6"/>
<path d="M216.509 203.532H206.633L201.365 209.844H212.765L216.509 203.532Z" fill="#C7C7C7"/>
<path d="M209.027 208.764V216.45H203.531V208.764L206.279 205.326L209.027 208.764Z" fill="#DBDBDB"/>
<path d="M209.027 208.758H213.347L209.027 216.45V208.758Z" fill="#C7C7C7"/>
<path d="M207.702 208.884H204.576V214.158H207.702V208.884Z" fill="#FBFAFF"/>
<path d="M205.967 209.25H204.959V210.948H205.967V209.25Z" fill="#EBEBEB"/>
<path d="M207.313 209.25H206.305V210.948H207.313V209.25Z" fill="#EBEBEB"/>
<path d="M205.967 211.254H204.959V213.768H205.967V211.254Z" fill="#EBEBEB"/>
<path d="M207.313 211.254H206.305V213.768H207.313V211.254Z" fill="#EBEBEB"/>
<path d="M240.689 203.532H230.813L225.869 209.844H236.921L240.689 203.532Z" fill="#C7C7C7"/>
<path d="M233.207 208.764V216.45H227.711V208.764L230.459 205.326L233.207 208.764Z" fill="#DBDBDB"/>
<path d="M233.207 208.758H237.533L233.207 216.45V208.758Z" fill="#C7C7C7"/>
<path d="M231.882 208.884H228.756V214.158H231.882V208.884Z" fill="#FBFAFF"/>
<path d="M230.149 209.25H229.141V210.948H230.149V209.25Z" fill="#EBEBEB"/>
<path d="M231.498 209.25H230.49V210.948H231.498V209.25Z" fill="#EBEBEB"/>
<path d="M230.149 211.254H229.141V213.768H230.149V211.254Z" fill="#EBEBEB"/>
<path d="M231.498 211.254H230.49V213.768H231.498V211.254Z" fill="#EBEBEB"/>
<path d="M248.879 193.89H243.383V201.126H248.879V193.89Z" fill="#DBDBDB"/>
<path d="M248.879 193.89H253.199V195.054L248.879 201.126V193.89Z" fill="#C7C7C7"/>
<path d="M248.88 191.43H242.766V193.89H248.88V191.43Z" fill="#C7C7C7"/>
<path d="M253.673 191.43H248.879V193.89H253.673V191.43Z" fill="#A6A6A6"/>
<path d="M209.443 227.334H202.639V238.824H209.443V227.334Z" fill="#FBFAFF"/>
<path d="M205.669 228.132H203.479V231.834H205.669V228.132Z" fill="#EBEBEB"/>
<path d="M208.602 228.132H206.412V231.834H208.602V228.132Z" fill="#EBEBEB"/>
<path d="M205.669 232.5H203.479V237.984H205.669V232.5Z" fill="#EBEBEB"/>
<path d="M208.602 232.5H206.412V237.984H208.602V232.5Z" fill="#EBEBEB"/>
<path d="M234.714 227.334H227.91V238.824H234.714V227.334Z" fill="#FBFAFF"/>
<path d="M230.94 228.132H228.75V231.834H230.94V228.132Z" fill="#EBEBEB"/>
<path d="M233.874 228.132H231.684V231.834H233.874V228.132Z" fill="#EBEBEB"/>
<path d="M230.94 232.5H228.75V237.984H230.94V232.5Z" fill="#EBEBEB"/>
<path d="M233.874 232.5H231.684V237.984H233.874V232.5Z" fill="#EBEBEB"/>
<path d="M209.443 243.3H202.639V254.79H209.443V243.3Z" fill="#FBFAFF"/>
<path d="M205.669 244.098H203.479V247.8H205.669V244.098Z" fill="#EBEBEB"/>
<path d="M208.602 244.098H206.412V247.8H208.602V244.098Z" fill="#EBEBEB"/>
<path d="M205.669 248.466H203.479V253.95H205.669V248.466Z" fill="#EBEBEB"/>
<path d="M208.602 248.466H206.412V253.95H208.602V248.466Z" fill="#EBEBEB"/>
<path d="M234.714 243.3H227.91V254.79H234.714V243.3Z" fill="#FBFAFF"/>
<path d="M230.94 244.098H228.75V247.8H230.94V244.098Z" fill="#EBEBEB"/>
<path d="M233.874 244.098H231.684V247.8H233.874V244.098Z" fill="#EBEBEB"/>
<path d="M230.94 248.466H228.75V253.95H230.94V248.466Z" fill="#EBEBEB"/>
<path d="M233.874 248.466H231.684V253.95H233.874V248.466Z" fill="#EBEBEB"/>
<path d="M222.042 227.334H215.238V238.824H222.042V227.334Z" fill="#FBFAFF"/>
<path d="M218.268 228.132H216.078V231.834H218.268V228.132Z" fill="#EBEBEB"/>
<path d="M221.208 228.132H219.018V231.834H221.208V228.132Z" fill="#EBEBEB"/>
<path d="M218.268 232.5H216.078V237.984H218.268V232.5Z" fill="#EBEBEB"/>
<path d="M221.208 232.5H219.018V237.984H221.208V232.5Z" fill="#EBEBEB"/>
<path d="M222.042 243.378H215.238V254.868H222.042V243.378Z" fill="#FBFAFF"/>
<path d="M218.268 244.17H216.078V247.872H218.268V244.17Z" fill="#EBEBEB"/>
<path d="M221.208 244.17H219.018V247.872H221.208V244.17Z" fill="#EBEBEB"/>
<path d="M218.268 248.544H216.078V254.028H218.268V248.544Z" fill="#EBEBEB"/>
<path d="M221.208 248.544H219.018V254.028H221.208V248.544Z" fill="#EBEBEB"/>
<path d="M253.344 238.824H260.148V227.334H253.344V238.824Z" fill="#FBFAFF"/>
<path d="M259.307 228.132H257.117V231.834H259.307V228.132Z" fill="#EBEBEB"/>
<path d="M256.368 228.132H254.178V231.834H256.368V228.132Z" fill="#EBEBEB"/>
<path d="M259.307 232.5H257.117V237.984H259.307V232.5Z" fill="#EBEBEB"/>
<path d="M256.368 232.5H254.178V237.984H256.368V232.5Z" fill="#EBEBEB"/>
<path d="M253.344 221.064H260.148V211.338H253.344V221.064Z" fill="#FBFAFF"/>
<path d="M259.307 212.13H257.117V215.832H259.307V212.13Z" fill="#EBEBEB"/>
<path d="M256.368 212.13H254.178V215.832H256.368V212.13Z" fill="#EBEBEB"/>
<path d="M259.307 216.54H257.117V220.242H259.307V216.54Z" fill="#EBEBEB"/>
<path d="M256.368 216.54H254.178V220.242H256.368V216.54Z" fill="#EBEBEB"/>
<path d="M252.375 258.37L260.625 258.409L260.696 243.427L252.446 243.389L252.375 258.37Z" fill="#FBFAFF"/>
<path d="M255.671 244.426L255.66 246.67L257.436 246.678L257.447 244.434L255.671 244.426Z" fill="#EBEBEB"/>
<path d="M253.35 244.414L253.34 246.658L255.116 246.666L255.126 244.422L253.35 244.414Z" fill="#EBEBEB"/>
<path d="M254.641 254.817L258.391 254.835L258.393 254.295L254.643 254.277L254.641 254.817Z" fill="#EBEBEB"/>
<path d="M256.781 243.282V245.526H258.557V243.282H256.781Z" fill="#EBEBEB"/>
<path d="M255.665 247.259L255.654 249.503L257.43 249.512L257.441 247.268L255.665 247.259Z" fill="#EBEBEB"/>
<path d="M253.327 247.241L253.316 249.485L255.092 249.493L255.103 247.25L253.327 247.241Z" fill="#EBEBEB"/>
<path d="M257.993 247.271L257.982 249.515L259.758 249.524L259.769 247.28L257.993 247.271Z" fill="#EBEBEB"/>
<path d="M255.653 250.099L255.643 252.343L257.419 252.351L257.429 250.107L255.653 250.099Z" fill="#EBEBEB"/>
<path d="M253.319 250.086L253.309 252.33L255.085 252.339L255.095 250.095L253.319 250.086Z" fill="#EBEBEB"/>
<path d="M257.979 250.111L257.969 252.355L259.745 252.363L259.755 250.119L257.979 250.111Z" fill="#EBEBEB"/>
<path d="M122.7 258.402H84.4795L82.7695 239.88H122.7V258.402Z" fill="#DBDBDB"/>
<path d="M122.688 239.856L136.416 222.672L147.348 239.856L145.638 258.378H122.688V239.856Z" fill="#C7C7C7"/>
<path d="M95.8857 217.236H137.4L152.778 243.222H148.584L136.836 223.662L125.55 243.222H79.5537L95.8857 217.236Z" fill="#A6A6A6"/>
<path d="M94.6554 246.756H88.6074V255.396H94.6554V246.756Z" fill="#FBFAFF"/>
<path d="M91.2956 247.464H89.3516V250.752H91.2956V247.464Z" fill="#DBDBDB"/>
<path d="M93.9049 247.464H91.9609V250.752H93.9049V247.464Z" fill="#DBDBDB"/>
<path d="M91.2956 251.376H89.3516V254.664H91.2956V251.376Z" fill="#DBDBDB"/>
<path d="M93.9049 251.376H91.9609V254.664H93.9049V251.376Z" fill="#DBDBDB"/>
<path d="M116.868 246.756H110.82V255.396H116.868V246.756Z" fill="#FBFAFF"/>
<path d="M113.508 247.464H111.564V250.752H113.508V247.464Z" fill="#DBDBDB"/>
<path d="M116.118 247.464H114.174V250.752H116.118V247.464Z" fill="#DBDBDB"/>
<path d="M113.508 251.376H111.564V254.664H113.508V251.376Z" fill="#DBDBDB"/>
<path d="M116.118 251.376H114.174V254.664H116.118V251.376Z" fill="#DBDBDB"/>
<path d="M105.797 246.294H99.1309V258.402H105.797V246.294Z" fill="#FBFAFF"/>
<path d="M103.182 247.128H101.748V248.94H103.182V247.128Z" fill="#DBDBDB"/>
<path d="M105.065 247.128H103.631V248.94H105.065V247.128Z" fill="#DBDBDB"/>
<path d="M103.979 255.078H100.949V255.516H103.979V255.078Z" fill="#DBDBDB"/>
<path d="M101.297 247.128H99.8633V248.94H101.297V247.128Z" fill="#DBDBDB"/>
<path d="M103.182 249.42H101.748V251.232H103.182V249.42Z" fill="#DBDBDB"/>
<path d="M105.065 249.42H103.631V251.232H105.065V249.42Z" fill="#DBDBDB"/>
<path d="M101.297 249.42H99.8633V251.232H101.297V249.42Z" fill="#DBDBDB"/>
<path d="M103.182 251.712H101.748V253.524H103.182V251.712Z" fill="#DBDBDB"/>
<path d="M105.065 251.712H103.631V253.524H105.065V251.712Z" fill="#DBDBDB"/>
<path d="M101.297 251.712H99.8633V253.524H101.297V251.712Z" fill="#DBDBDB"/>
<path d="M104.669 216.198H99.7852V222.624H104.669V216.198Z" fill="#DBDBDB"/>
<path d="M104.67 216.198H108.51V217.23L104.67 222.624V216.198Z" fill="#C7C7C7"/>
<path d="M104.67 214.008H99.2402V216.192H104.67V214.008Z" fill="#C7C7C7"/>
<path d="M108.93 214.008H104.67V216.192H108.93V214.008Z" fill="#A6A6A6"/>
<path d="M137.809 258.408H150.205L151.387 245.634H137.809V258.408Z" fill="#C7C7C7"/>
<path d="M137.808 245.634L131.682 242.868L131.82 258.408H137.808V245.634Z" fill="#DBDBDB"/>
<path d="M147.3 248.94H142.086V258.402H147.3V248.94Z" fill="#FBFAFF"/>
<path d="M145.253 249.588H144.131V251.004H145.253V249.588Z" fill="#DBDBDB"/>
<path d="M146.724 249.588H145.602V251.004H146.724V249.588Z" fill="#DBDBDB"/>
<path d="M145.878 255.168H143.508V255.51H145.878V255.168Z" fill="#DBDBDB"/>
<path d="M143.784 249.588H142.662V251.004H143.784V249.588Z" fill="#DBDBDB"/>
<path d="M130.746 242.232H148.758L154.578 246.66H137.286L130.746 242.232Z" fill="#A6A6A6"/>
<path d="M137.286 246.66H130.746V242.232L137.286 246.66Z" fill="#C7C7C7"/>
<path d="M133.416 235.758C133.416 236.369 133.597 236.967 133.937 237.475C134.277 237.984 134.76 238.38 135.325 238.613C135.89 238.847 136.511 238.908 137.111 238.788C137.711 238.668 138.261 238.374 138.693 237.941C139.125 237.508 139.419 236.957 139.537 236.357C139.656 235.757 139.594 235.136 139.359 234.571C139.124 234.007 138.727 233.525 138.218 233.186C137.709 232.847 137.111 232.667 136.5 232.668C135.682 232.67 134.897 232.996 134.319 233.575C133.741 234.154 133.416 234.939 133.416 235.758Z" fill="#FBFAFF"/>
<path d="M134.105 235.758C134.105 236.395 134.358 237.005 134.808 237.455C135.259 237.905 135.869 238.158 136.505 238.158C136.708 238.159 136.91 238.133 137.105 238.08C137.664 237.928 138.15 237.58 138.472 237.098C138.794 236.617 138.931 236.035 138.858 235.461C138.784 234.886 138.506 234.358 138.074 233.972C137.642 233.587 137.085 233.371 136.505 233.364C136.303 233.363 136.101 233.389 135.905 233.442C135.626 233.51 135.363 233.632 135.131 233.802C134.816 234.022 134.559 234.315 134.38 234.655C134.202 234.995 134.107 235.374 134.105 235.758Z" fill="#C7C7C7"/>
<path d="M136.17 238.578H136.836V232.89H136.17V238.578Z" fill="#FBFAFF"/>
<path d="M139.35 236.064V235.398H133.662V236.064H139.35Z" fill="#FBFAFF"/>
<path d="M155.472 258.408H136.158L134.838 244.122H155.472V258.408Z" fill="white"/>
<path opacity="0.2" d="M155.472 258.408H136.158L134.838 244.122H155.472V258.408Z" fill="black"/>
<path d="M155.473 244.122L166.063 230.862L174.493 244.122L173.179 258.408H155.473V244.122Z" fill="white"/>
<path d="M156.749 245.868H130.541L146.483 225.822H166.169L178.001 245.868H174.995L166.169 232.134L156.749 245.868Z" fill="white"/>
<path opacity="0.4" d="M156.749 245.868H130.541L146.483 225.822H166.169L178.001 245.868H174.995L166.169 232.134L156.749 245.868Z" fill="black"/>
<path d="M183.198 208.092H177.738V215.28H183.198V208.092Z" fill="white"/>
<path opacity="0.2" d="M183.198 208.092H177.738V215.28H183.198V208.092Z" fill="black"/>
<path d="M187.493 208.092H183.197V215.28H187.493V208.092Z" fill="white"/>
<path d="M183.197 205.644H177.125V208.086H183.197V205.644Z" fill="white"/>
<path opacity="0.5" d="M183.197 205.644H177.125V208.086H183.197V205.644Z" fill="black"/>
<path d="M187.961 205.644H183.197V208.086H187.961V205.644Z" fill="white"/>
<path opacity="0.4" d="M187.961 205.644H183.197V208.086H187.961V205.644Z" fill="black"/>
<path d="M202.387 258.39H159.637L157.723 237.672H202.387V258.39Z" fill="white"/>
<path opacity="0.2" d="M202.387 258.39H159.637L157.723 237.672H202.387V258.39Z" fill="black"/>
<path d="M202.385 237.672L217.739 218.442L229.967 237.672L228.053 258.39H202.385V237.672Z" fill="white"/>
<path d="M217.554 219.66L230.178 239.184H234.588L217.932 212.34H172.458L149.418 241.41H204.96L217.554 219.66Z" fill="white"/>
<path opacity="0.5" d="M217.554 219.66L230.178 239.184H234.588L217.932 212.34H172.458L149.418 241.41H204.96L217.554 219.66Z" fill="black"/>
<path d="M213.75 240.582H220.512V230.916H213.75V240.582Z" fill="#FBFAFF"/>
<path d="M219.678 231.702H217.5V235.38H219.678V231.702Z" fill="white"/>
<path d="M216.762 231.702H214.584V235.38H216.762V231.702Z" fill="white"/>
<path d="M219.678 236.082H217.5V239.76H219.678V236.082Z" fill="white"/>
<path d="M216.762 236.082H214.584V239.76H216.762V236.082Z" fill="white"/>
<path d="M171.012 245.358H164.25V255.024H171.012V245.358Z" fill="#FBFAFF"/>
<path d="M167.262 246.15H165.084V249.828H167.262V246.15Z" fill="white"/>
<path d="M170.184 246.15H168.006V249.828H170.184V246.15Z" fill="white"/>
<path d="M167.262 250.53H165.084V254.208H167.262V250.53Z" fill="white"/>
<path d="M170.184 250.53H168.006V254.208H170.184V250.53Z" fill="white"/>
<path d="M183.438 245.358H176.676V255.024H183.438V245.358Z" fill="#FBFAFF"/>
<path d="M179.682 246.15H177.504V249.828H179.682V246.15Z" fill="white"/>
<path d="M182.604 246.15H180.426V249.828H182.604V246.15Z" fill="white"/>
<path d="M179.682 250.53H177.504V254.208H179.682V250.53Z" fill="white"/>
<path d="M182.604 250.53H180.426V254.208H182.604V250.53Z" fill="white"/>
<path d="M195.858 245.358H189.096V255.024H195.858V245.358Z" fill="#FBFAFF"/>
<path d="M192.108 246.15H189.93V249.828H192.108V246.15Z" fill="white"/>
<path d="M195.024 246.15H192.846V249.828H195.024V246.15Z" fill="white"/>
<path d="M192.108 250.53H189.93V254.208H192.108V250.53Z" fill="white"/>
<path d="M195.024 250.53H192.846V254.208H195.024V250.53Z" fill="white"/>
<path d="M213.401 258.384H220.859V244.842H213.401V258.384Z" fill="#FBFAFF"/>
<path d="M217.938 245.778H216.33V247.806H217.938V245.778Z" fill="white"/>
<path d="M215.833 245.778H214.225V247.806H215.833V245.778Z" fill="white"/>
<path d="M215.436 255.162H218.826V254.67H215.436V255.162Z" fill="white"/>
<path d="M220.038 245.778H218.43V247.806H220.038V245.778Z" fill="white"/>
<path d="M217.938 248.34H216.33V250.368H217.938V248.34Z" fill="white"/>
<path d="M215.833 248.34H214.225V250.368H215.833V248.34Z" fill="white"/>
<path d="M220.038 248.34H218.43V250.368H220.038V248.34Z" fill="white"/>
<path d="M217.938 250.902H216.33V252.93H217.938V250.902Z" fill="white"/>
<path d="M215.833 250.902H214.225V252.93H215.833V250.902Z" fill="white"/>
<path d="M220.038 250.902H218.43V252.93H220.038V250.902Z" fill="white"/>
<path d="M190.061 219.3H180.245L175.199 225.6H186.311L190.061 219.3Z" fill="white"/>
<path opacity="0.4" d="M190.061 219.3H180.245L175.199 225.6H186.311L190.061 219.3Z" fill="black"/>
<path d="M182.628 224.496V232.134H177.162V224.496L179.898 221.082L182.628 224.496Z" fill="white"/>
<path opacity="0.2" d="M182.628 224.496V232.134H177.162V224.496L179.898 221.082L182.628 224.496Z" fill="black"/>
<path d="M182.627 224.496H186.923L182.627 232.134V224.496Z" fill="white"/>
<path d="M181.301 224.616H178.199V229.854H181.301V224.616Z" fill="#FBFAFF"/>
<path d="M179.586 224.976H178.584V226.662H179.586V224.976Z" fill="white"/>
<path d="M180.924 224.976H179.922V226.662H180.924V224.976Z" fill="white"/>
<path d="M179.586 226.974H178.584V229.476H179.586V226.974Z" fill="white"/>
<path d="M180.924 226.974H179.922V229.476H180.924V226.974Z" fill="white"/>
</svg>
