<svg width="50" height="51" viewBox="0 0 50 51" fill="none" xmlns="http://www.w3.org/2000/svg">
<path d="M12.9301 0.5C9.1923 0.5 5.80223 1.07077 3.43896 1.9446C2.25679 2.38152 1.33538 2.89768 0.763852 3.3967C0.192321 3.89573 0 4.31444 0 4.67639C0 5.03835 0.192321 5.45706 0.763852 5.95608C1.33538 6.45511 2.25679 6.97126 3.43896 7.40818C5.80223 8.28522 9.1923 8.85278 12.9301 8.85278C16.6678 8.85278 20.0579 8.28522 22.4157 7.40818C23.6001 6.97126 24.5237 6.45511 25.0995 5.95608C25.6646 5.45706 25.8601 5.03835 25.8601 4.67639C25.8601 4.31444 25.6646 3.89573 25.0995 3.3967C24.5237 2.89768 23.6001 2.38152 22.4157 1.9446C20.0579 1.07077 16.6678 0.5 12.9301 0.5ZM19.9927 3.49843C20.6843 3.49843 21.3476 3.58869 21.8367 3.74936C22.3257 3.91002 22.6005 4.12792 22.6005 4.35513C22.6005 4.58234 22.3257 4.80024 21.8367 4.96091C21.3476 5.12157 20.6843 5.21183 19.9927 5.21183C19.3011 5.21183 18.6378 5.12157 18.1488 4.96091C17.6597 4.80024 17.385 4.58234 17.385 4.35513C17.385 4.12792 17.6597 3.91002 18.1488 3.74936C18.6378 3.58869 19.3011 3.49843 19.9927 3.49843ZM0 7.81939V16.6701C0 16.8843 0.133647 17.1627 0.746467 17.5482C1.3582 17.9338 2.36327 18.3193 3.60521 18.6298C6.08909 19.2402 9.51827 19.5615 12.9301 19.5615C16.3419 19.5615 19.7754 19.2402 22.2528 18.6298C23.4914 18.3193 24.5019 17.9338 25.1104 17.5482C25.7298 17.1627 25.8601 16.8843 25.8601 16.6701V7.81939C25.0995 8.36018 24.176 8.82066 23.1111 9.21688C20.4382 10.2021 16.8743 10.7803 12.9301 10.7803C8.98586 10.7803 5.42194 10.2021 2.75226 9.21688C1.68308 8.82066 0.756246 8.36018 0 7.81939ZM27.8159 8.95987V35.0998L32.1405 36.0743C31.771 35.2283 31.5103 34.2431 31.3581 33.1294C30.9778 30.3344 31.1952 26.7791 32.0753 22.9883C32.9445 19.1974 34.3027 15.9098 35.8782 13.5539C36.5084 12.6115 37.1712 11.8298 37.8666 11.2194L27.8159 8.95987ZM43.0495 17.3019C36.9648 18.1158 30.6519 28.8995 34.9655 36.6633C35.0633 36.7168 35.1502 36.7489 35.248 36.7704C35.6066 36.856 36.0629 36.7596 36.6714 36.3206C37.3016 35.8815 38.0187 35.1105 38.7141 34.0718C40.1049 31.9943 41.4197 28.8673 42.2455 25.2692C42.9191 22.3457 43.169 19.5615 43.0495 17.3019ZM0 19.3473V28.3426C0 28.5568 0.133647 28.8352 0.746467 29.2207C1.3582 29.6062 2.36327 29.9917 3.60521 30.3023C6.08909 30.9127 9.51827 31.234 12.9301 31.234C16.3419 31.234 19.7754 30.9127 22.2528 30.3023C23.4914 29.9917 24.5019 29.6062 25.1104 29.2207C25.7298 28.8352 25.8601 28.5568 25.8601 28.3426V19.3473C25.0018 19.8399 23.9478 20.1933 22.7308 20.4931C19.9927 21.1678 16.4723 21.489 12.9301 21.489C9.38788 21.489 5.86308 21.1678 3.13147 20.4931C1.91669 20.1933 0.859469 19.8292 0 19.3473ZM0 31.0198V37.2308C0 37.7663 0.239043 38.2267 0.854037 38.7515C1.46903 39.2655 2.45128 39.7688 3.67801 40.1757C6.13037 40.9789 9.54 41.4072 12.9301 41.4072C16.3201 41.4072 19.7319 40.9789 22.1876 40.1757C23.4045 39.7688 24.3933 39.2655 25.0018 38.7515C25.6211 38.2267 25.8601 37.7663 25.8601 37.2308V31.0198C25.0018 31.5124 23.9478 31.8658 22.7308 32.1656C19.9927 32.8403 16.4723 33.1615 12.9301 33.1615C9.38788 33.1615 5.86308 32.8403 3.13147 32.1656C1.91669 31.8658 0.859469 31.5017 0 31.0198ZM41.1263 36.8989C41.0503 36.8989 40.9633 36.8989 40.8873 36.9096C38.7685 37.0702 40.181 41.7499 38.2469 42.6066C36.5845 43.3562 34.8243 40.8289 33.0097 41.0538C29.9782 41.4286 24.5237 42.7458 25.1539 45.6907C26.0231 49.7279 33.4878 46.5581 37.6276 47.1899C41.5392 47.7896 47.1024 52.6406 49.2972 49.3852C52.0571 45.2945 46.1354 36.7811 41.1263 36.8989ZM21.3618 46.6759C20.8076 46.6759 20.3404 46.9008 20.0579 47.3613C19.5472 48.1858 20.7316 49.4066 21.6117 49.8243C22.6331 50.3061 25.4798 50.4454 24.9909 49.4387C24.1434 47.6825 22.5679 46.6545 21.3618 46.6759Z" fill="url(#paint0_linear_321_2659)"/>
<defs>
<linearGradient id="paint0_linear_321_2659" x1="25" y1="0.5" x2="25" y2="50.5" gradientUnits="userSpaceOnUse">
<stop stop-color="#4169E1"/>
<stop offset="1" stop-color="#1862CA"/>
</linearGradient>
</defs>
</svg>
