<svg width="30" height="31" viewBox="0 0 30 31" fill="none" xmlns="http://www.w3.org/2000/svg">
<path d="M21.3242 19.9012C21.9089 19.5019 22.5948 19.2763 23.3024 19.2505C24.01 19.2248 24.7104 19.3998 25.3227 19.7555C25.9349 20.1112 26.434 20.633 26.7621 21.2605C27.0902 21.8879 27.2339 22.5955 27.1767 23.3012C25.6769 23.8254 24.0839 24.0294 22.5004 23.9C22.4955 22.4833 22.0876 21.096 21.3242 19.9025C20.6465 18.8397 19.7118 17.965 18.6064 17.3594C17.5011 16.7537 16.2608 16.4366 15.0004 16.4375C13.7402 16.4369 12.5002 16.754 11.3951 17.3597C10.2899 17.9653 9.35541 18.8399 8.67791 19.9025M22.4992 23.8987L22.5004 23.9375C22.5004 24.2187 22.4854 24.4963 22.4542 24.77C20.1859 26.0714 17.6155 26.7542 15.0004 26.75C12.2879 26.75 9.74166 26.03 7.54666 24.77C7.51452 24.4807 7.49908 24.1898 7.50041 23.8987M7.50041 23.8987C5.91744 24.0328 4.32529 23.8296 2.82666 23.3025C2.7696 22.5969 2.9134 21.8896 3.24144 21.2624C3.56949 20.6351 4.06837 20.1135 4.68041 19.7579C5.29245 19.4022 5.99265 19.2271 6.70006 19.2527C7.40746 19.2783 8.09317 19.5036 8.67791 19.9025M7.50041 23.8987C7.5049 22.4822 7.91494 21.0961 8.67791 19.9025M18.7504 8.9375C18.7504 9.93206 18.3553 10.8859 17.6521 11.5892C16.9488 12.2924 15.995 12.6875 15.0004 12.6875C14.0058 12.6875 13.052 12.2924 12.3488 11.5892C11.6455 10.8859 11.2504 9.93206 11.2504 8.9375C11.2504 7.94294 11.6455 6.98911 12.3488 6.28585C13.052 5.58259 14.0058 5.1875 15.0004 5.1875C15.995 5.1875 16.9488 5.58259 17.6521 6.28585C18.3553 6.98911 18.7504 7.94294 18.7504 8.9375ZM26.2504 12.6875C26.2504 13.0568 26.1777 13.4226 26.0363 13.7638C25.895 14.105 25.6878 14.4151 25.4266 14.6762C25.1655 14.9374 24.8554 15.1446 24.5142 15.2859C24.173 15.4273 23.8073 15.5 23.4379 15.5C23.0686 15.5 22.7028 15.4273 22.3616 15.2859C22.0204 15.1446 21.7103 14.9374 21.4492 14.6762C21.188 14.4151 20.9808 14.105 20.8395 13.7638C20.6982 13.4226 20.6254 13.0568 20.6254 12.6875C20.6254 11.9416 20.9217 11.2262 21.4492 10.6988C21.9766 10.1713 22.692 9.875 23.4379 9.875C24.1838 9.875 24.8992 10.1713 25.4266 10.6988C25.9541 11.2262 26.2504 11.9416 26.2504 12.6875ZM9.37541 12.6875C9.37541 13.0568 9.30266 13.4226 9.16132 13.7638C9.01998 14.105 8.81281 14.4151 8.55165 14.6762C8.29048 14.9374 7.98043 15.1446 7.63921 15.2859C7.29798 15.4273 6.93225 15.5 6.56291 15.5C6.19357 15.5 5.82784 15.4273 5.48661 15.2859C5.14538 15.1446 4.83534 14.9374 4.57417 14.6762C4.31301 14.4151 4.10584 14.105 3.9645 13.7638C3.82316 13.4226 3.75041 13.0568 3.75041 12.6875C3.75041 11.9416 4.04672 11.2262 4.57417 10.6988C5.10162 10.1713 5.81699 9.875 6.56291 9.875C7.30883 9.875 8.0242 10.1713 8.55165 10.6988C9.07909 11.2262 9.37541 11.9416 9.37541 12.6875Z" stroke="white" stroke-width="1.5" stroke-linecap="round" stroke-linejoin="round"/>
</svg>
