<svg width="32" height="32" viewBox="0 0 32 32" fill="none" xmlns="http://www.w3.org/2000/svg">
<circle cx="16" cy="16" r="16" fill="#5180FF"/>
<path d="M22.05 12.87C21.67 12.85 21.15 12.8 20.49 12.72C19.25 12.6 18.25 12.54 17.49 12.54H16.5V8.46C17.92 8.46 19.27 8.56 20.55 8.76L22.05 9.03V12.87ZM17.7 19.35C17.7 19.05 17.65 18.86 17.55 18.78C17.45 18.7 17.24 18.64 16.92 18.6L13.68 18.15C12.88 18.03 12.23 17.84 11.73 17.58C11.25 17.32 10.89 16.97 10.65 16.53C10.41 16.15 10.25 15.69 10.17 15.15C10.09 14.61 10.05 13.94 10.05 13.14C10.05 11.5 10.54 10.3 11.52 9.54C12.34 8.94 13.58 8.59 15.24 8.49V13.2C15.24 13.5 15.28 13.7 15.36 13.8C15.44 13.88 15.69 13.95 16.11 14.01L19.71 14.49C20.23 14.55 20.68 14.66 21.06 14.82C21.44 14.96 21.76 15.18 22.02 15.48C22.6 16.12 22.89 17.35 22.89 19.17C22.89 21.09 22.4 22.43 21.42 23.19C20.56 23.83 19.32 24.17 17.7 24.21V19.35ZM16.44 24.24C14.84 24.22 13.44 24.12 12.24 23.94L10.53 23.67V19.83C11.33 19.91 12.41 19.99 13.77 20.07C14.53 20.11 15.07 20.13 15.39 20.13H16.44V24.24Z" fill="white"/>
<circle cx="26" cy="11" r="2" fill="white"/>
<circle cx="7" cy="22" r="2" fill="white"/>
</svg>
