<svg width="24" height="25" viewBox="0 0 24 25" fill="none" xmlns="http://www.w3.org/2000/svg">
<path d="M9.813 16.404L9 19.25L8.187 16.404C7.97687 15.6689 7.5829 14.9994 7.04226 14.4587C6.50162 13.9181 5.83214 13.5241 5.097 13.314L2.25 12.5L5.096 11.687C5.83114 11.4769 6.50062 11.0829 7.04126 10.5423C7.5819 10.0016 7.97587 9.33214 8.186 8.597L9 5.75L9.813 8.596C10.0231 9.33114 10.4171 10.0006 10.9577 10.5413C11.4984 11.0819 12.1679 11.4759 12.903 11.686L15.75 12.5L12.904 13.313C12.1689 13.5231 11.4994 13.9171 10.9587 14.4577C10.4181 14.9984 10.0241 15.6679 9.814 16.403L9.813 16.404ZM18.259 9.215L18 10.25L17.741 9.215C17.5927 8.62159 17.286 8.07962 16.8536 7.64703C16.4212 7.21444 15.8794 6.90749 15.286 6.759L14.25 6.5L15.286 6.241C15.8794 6.09251 16.4212 5.78556 16.8536 5.35297C17.286 4.92038 17.5927 4.37841 17.741 3.785L18 2.75L18.259 3.785C18.4073 4.37854 18.7142 4.92059 19.1468 5.35319C19.5794 5.78579 20.1215 6.09267 20.715 6.241L21.75 6.5L20.715 6.759C20.1215 6.90733 19.5794 7.21421 19.1468 7.64681C18.7142 8.07941 18.4073 8.62147 18.259 9.215ZM16.894 21.067L16.5 22.25L16.106 21.067C15.9955 20.7356 15.8094 20.4345 15.5625 20.1875C15.3155 19.9406 15.0144 19.7545 14.683 19.644L13.5 19.25L14.683 18.856C15.0144 18.7455 15.3155 18.5594 15.5625 18.3125C15.8094 18.0655 15.9955 17.7644 16.106 17.433L16.5 16.25L16.894 17.433C17.0045 17.7644 17.1906 18.0655 17.4375 18.3125C17.6845 18.5594 17.9856 18.7455 18.317 18.856L19.5 19.25L18.317 19.644C17.9856 19.7545 17.6845 19.9406 17.4375 20.1875C17.1906 20.4345 17.0045 20.7356 16.894 21.067Z" stroke="black" stroke-width="1.5" stroke-linecap="round" stroke-linejoin="round"/>
</svg>
