<svg width="32" height="38" viewBox="0 0 32 38" fill="none" xmlns="http://www.w3.org/2000/svg">
<circle cx="16" cy="17" r="16" fill="#26CC55"/>
<path d="M7.984 26.304C7.872 25.856 7.728 25.232 7.552 24.432L6.904 21.792L6.184 18.768L4.24 10.488H9.016L12.424 27H8.152L7.984 26.304ZM11.752 18.744L13.552 10.488H18.472L22.408 27H18.304L18.112 26.208L17.608 24.12L16.888 21.072C16.584 19.84 16.296 18.632 16.024 17.448H15.88L15.064 21.072L14.8 22.296C14.72 22.632 14.64 22.952 14.56 23.256C14.496 23.56 14.432 23.848 14.368 24.12L13.888 26.208L13.696 27H13.432L11.752 18.744ZM21.448 18.6L22.888 10.488H27.664L25.696 18.768L24.976 21.792C24.672 23.024 24.464 23.904 24.352 24.432L23.896 26.304L23.728 27H23.44L21.448 18.6Z" fill="white"/>
<circle cx="16" cy="8" r="2" fill="white"/>
</svg>
